<?xml version="1.0"?>
<svg xmlns="http://www.w3.org/2000/svg" xmlns:xlink="http://www.w3.org/1999/xlink" version="1.1" viewBox="0 0 252 252" width="25px" height="25px"><g fill="none" fill-rule="nonzero" stroke="none" stroke-width="1" stroke-linecap="butt" stroke-linejoin="miter" stroke-miterlimit="10" stroke-dasharray="" stroke-dashoffset="0" font-family="none" font-weight="none" font-size="none" text-anchor="none" style="mix-blend-mode: normal"><path d="M0,252v-252h252v252z" fill="none"/><path d="M0,126c0,-69.58788 56.41212,-126 126,-126c69.58788,0 126,56.41212 126,126c0,69.58788 -56.41212,126 -126,126c-69.58788,0 -126,-56.41212 -126,-126zM126,241.92c64.02085,0 115.92,-51.89915 115.92,-115.92c0,-64.02085 -51.89915,-115.92 -115.92,-115.92c-64.02085,0 -115.92,51.89915 -115.92,115.92c0,64.02085 51.89915,115.92 115.92,115.92z" fill="#ffffff"/><g fill="#ffffff"><g id="surface1"><path d="M98.952,190.05788c0,3.44137 -1.84144,5.49412 -4.45266,5.49412c-0.92072,0 -1.94709,-0.25659 -3.03384,-0.79997l-42.11156,-21.32747c-2.47538,-1.25278 -4.49794,-4.57341 -4.49794,-7.36575v-104.53931c0,-2.76216 1.46409,-4.39228 3.56212,-4.39228c0.73959,0 1.56975,0.19622 2.43009,0.63394l1.47919,0.75469h0.01509l46.41328,23.50097c0.07547,0.04528 0.13584,0.12075 0.19622,0.18113zM147.58406,63.72319l2.83762,-4.66397c1.01128,-1.66031 2.86781,-2.61122 4.75453,-2.61122c0.43772,0 0.89053,0.06038 1.32825,0.18113c0.33206,0.07547 0.67922,0.19622 1.04147,0.37734l48.94903,24.78394c0.0151,0 0.0151,0.01509 0.0151,0.01509l0.04528,0.01509c0.03019,0.0151 0.03019,0.06038 0.06037,0.07547c0.2415,0.19622 0.34716,0.52828 0.18113,0.79997l-48.75281,80.23837l-4.98094,8.18081l-32.30063,-63.2579zM106.68,147.65953v-50.39803l34.70053,67.98225l-31.21387,-15.80316zM207.144,190.05788c0,3.23006 -1.91691,5.0715 -4.73944,5.0715c-1.26788,0 -2.71688,-0.36225 -4.24135,-1.13203l-6.9884,-3.54703l-31.21387,-15.80316l47.18306,-77.64225z"/></g></g><path d="M126,252c-69.58788,0 -126,-56.41212 -126,-126v0c0,-69.58788 56.41212,-126 126,-126v0c69.58788,0 126,56.41212 126,126v0c0,69.58788 -56.41212,126 -126,126z" fill="none"/><path d="M126,241.92c-64.02085,0 -115.92,-51.89915 -115.92,-115.92v0c0,-64.02085 51.89915,-115.92 115.92,-115.92h0c64.02085,0 115.92,51.89915 115.92,115.92v0c0,64.02085 -51.89915,115.92 -115.92,115.92z" fill="none"/><path d="M126,252c-69.58788,0 -126,-56.41212 -126,-126v0c0,-69.58788 56.41212,-126 126,-126v0c69.58788,0 126,56.41212 126,126v0c0,69.58788 -56.41212,126 -126,126z" fill="none"/><path d="M126,241.92c-64.02085,0 -115.92,-51.89915 -115.92,-115.92v0c0,-64.02085 51.89915,-115.92 115.92,-115.92h0c64.02085,0 115.92,51.89915 115.92,115.92v0c0,64.02085 -51.89915,115.92 -115.92,115.92z" fill="none"/></g></svg>